# xmcd
#
# Track frame offsets: 
#        182
#        18097
#        35690
#        52977
#        69095
#        84132
#        102317
#        117982
#        135197
#        150875
#        166822
#        182102
#        197347
#        217322
#        234675
#        254907
#        278722
#        293437
#        309060
#
# Disc length: 4350 seconds
#
# Revision: 3
# Processed by: cddbd v1.5.1PL2 Copyright (c) Steve Scherf et al.
# Submitted via: ExactAudioCopy v0.95b4
#
DISCID=f110fc13
DTITLE=Various Artist - Holiday Dance Mix Vol.1 CD 2
DYEAR=1997
DGENRE=Dance
TTITLE0=N-Trance - Stayin' Alive
TTITLE1=Captain Jack - Together And Forever
TTITLE2=Red 5 - Lift Me Up
TTITLE3=Caught In The Act - Do It For Love
TTITLE4='N Sync - I Want You Back
TTITLE5=Damage - Love II Love
TTITLE6=Fun Factory - Doh Wah Diddy
TTITLE7=Squeezer - Saturday Night
TTITLE8=Der Wolf - Gibt's Doch Gar Nicht
TTITLE9=Backstreet Boys - Get Down
TTITLE10=Rednex - Riding Alone
TTITLE11=Burger Lars Dietrich - Sexy Eis
TTITLE12=Shinehead - Jamaican In New York
TTITLE13=Mighty Dub Kats - Magic Carpet Ride
TTITLE14=C and C Music Factory - I'll Always Be Around
TTITLE15=Gloria Estefan - Medley Miami Hit Mix
TTITLE16=DJ The Crow - I've Got No Time
TTITLE17=Down Low - Lovething
TTITLE18=Nana - Lonely
EXTD=
EXTT0=
EXTT1=
EXTT2=
EXTT3=
EXTT4=
EXTT5=
EXTT6=
EXTT7=
EXTT8=
EXTT9=
EXTT10=
EXTT11=
EXTT12=
EXTT13=
EXTT14=
EXTT15=
EXTT16=
EXTT17=
EXTT18=
PLAYORDER=
